<svg xmlns="http://www.w3.org/2000/svg" width="1024" height="1024" viewBox="0 0 1024 1024">
<g>
<path d="M 823.26 704.92 C794.59,719.22 769.56,731.57 767.65,732.37 C764.22,733.80 763.97,733.73 749.84,727.07 C717.63,711.88 651.22,678.02 650.63,676.48 C650.28,675.58 650.00,634.18 650.00,584.49 L 650.00 494.15 L 652.69 492.03 C654.18,490.86 679.82,477.67 709.68,462.70 L 763.98 435.50 L 820.74 464.00 L 877.50 492.50 L 877.76 584.62 C877.96,659.40 877.76,676.95 876.71,677.83 C875.99,678.42 851.94,690.61 823.26,704.92 ZM 546.79 729.93 C541.45,730.52 528.80,731.00 518.67,731.00 C501.57,731.00 500.08,730.85 497.63,728.93 L 495.00 726.85 L 495.00 651.15 L 497.63 649.07 C500.04,647.18 501.62,647.00 515.88,646.98 C530.23,646.97 531.82,646.78 535.48,644.71 C537.71,643.45 540.45,640.71 541.71,638.48 L 543.97 634.50 L 543.98 583.45 L 544.00 532.39 L 540.98 527.63 C538.81,524.21 536.63,522.25 533.23,520.69 C528.54,518.52 527.91,518.50 464.04,518.21 C406.28,517.96 399.39,517.76 397.79,516.31 C396.13,514.81 396.00,511.92 396.00,476.37 L 396.00 438.05 L 398.39 436.48 C400.51,435.09 409.02,434.95 475.64,435.26 C557.41,435.64 554.11,435.41 569.87,441.66 C586.15,448.11 602.63,460.36 612.74,473.50 C619.79,482.68 626.37,496.25 629.74,508.57 L 632.45 518.50 L 632.47 581.50 C632.50,642.68 632.44,644.76 630.34,653.56 C627.11,667.07 622.46,678.19 615.99,687.85 C600.33,711.24 574.61,726.88 546.79,729.93 ZM 488.78 417.44 C486.85,418.79 480.97,419.00 444.73,419.00 L 402.91 419.00 L 400.45 416.55 L 398.00 414.09 L 398.00 131.27 L 400.07 128.63 L 402.15 126.00 L 444.92 126.00 C485.08,126.00 487.79,126.11 489.35,127.83 C490.87,129.51 491.00,141.01 491.00,272.77 L 491.00 415.89 ZM 237.78 417.44 C235.85,418.79 229.97,419.00 193.73,419.00 L 151.91 419.00 L 149.49 416.58 L 147.07 414.16 L 147.05 272.69 C147.03,131.42 147.03,131.23 149.09,128.62 L 151.15 126.00 L 193.92 126.00 C234.08,126.00 236.79,126.11 238.35,127.83 C239.87,129.51 240.00,141.01 240.00,272.77 L 240.00 415.89 ZM 741.00 417.00 C739.06,418.94 737.67,419.00 697.13,419.00 C656.30,419.00 655.21,418.95 652.63,416.93 L 650.00 414.85 L 650.00 272.43 C650.00,131.33 650.02,129.98 652.00,128.00 C653.94,126.06 655.33,126.00 696.50,126.00 C737.67,126.00 739.06,126.06 741.00,128.00 C742.98,129.98 743.00,131.33 743.00,272.50 C743.00,413.67 742.98,415.02 741.00,417.00 ZM 484.37 728.93 C481.80,730.95 480.69,731.00 441.04,731.00 L 400.35 731.00 L 396.00 726.37 L 396.00 530.35 L 398.31 528.17 C400.61,526.02 400.92,526.00 441.36,526.00 L 482.09 526.00 L 484.55 528.45 L 487.00 530.91 L 487.00 726.85 ZM 711.40 692.71 C735.65,704.92 755.84,714.94 756.25,714.96 C756.66,714.98 757.00,679.23 757.00,635.50 L 757.00 556.00 L 711.00 533.00 C685.71,520.35 664.78,510.00 664.50,510.00 C664.23,510.00 664.00,545.49 664.00,588.88 C664.00,660.88 664.14,667.87 665.65,669.13 C666.55,669.88 687.14,680.49 711.40,692.71 ZM 772.50 555.50 L 771.99 715.02 L 818.10 691.76 L 864.22 668.50 L 864.09 589.57 C864.02,546.15 863.79,510.46 863.58,510.25 C863.37,510.04 842.79,520.13 817.85,532.68 ZM 348.45 264.62 L 340.61 268.50 L 324.52 268.83 C309.65,269.14 308.24,269.01 305.96,267.17 L 303.50 265.18 L 303.38 243.28 C303.25,219.86 302.89,217.95 297.85,213.37 C292.96,208.95 291.30,208.64 271.78,208.57 C253.68,208.50 252.98,208.42 250.78,206.22 C248.50,203.95 248.50,203.91 248.20,167.67 C247.91,132.00 247.94,131.34 250.03,128.69 L 252.15 126.00 L 279.11 126.00 C309.35,126.00 315.76,126.82 329.71,132.47 C360.66,145.00 380.00,173.64 380.00,206.97 C380.00,233.73 368.53,254.70 348.45,264.62 ZM 600.22 264.25 L 591.65 268.50 L 575.58 268.85 C559.51,269.19 559.50,269.19 556.75,266.64 L 554.00 264.10 L 554.00 242.50 C554.00,218.84 553.72,217.47 547.99,212.65 C543.13,208.56 538.29,207.79 519.73,208.16 C502.99,208.50 502.81,208.48 500.91,206.14 C499.11,203.91 499.00,201.74 499.00,166.89 C499.00,130.93 499.05,129.95 501.07,127.93 C503.08,125.92 503.90,125.88 532.32,126.24 C558.63,126.57 562.28,126.83 569.45,128.81 C599.82,137.24 622.18,159.62 629.07,188.50 C632.06,201.00 631.45,218.80 627.63,230.50 C622.23,247.04 613.66,257.59 600.22,264.25 ZM 318.50 416.15 C311.37,418.09 307.36,418.38 281.80,418.76 L 253.09 419.18 L 250.49 416.58 L 247.89 413.98 L 248.50 339.82 L 250.86 337.91 C252.99,336.19 255.01,336.00 271.36,335.98 C292.63,335.95 295.96,335.04 300.68,327.90 L 303.50 323.65 L 303.85 301.89 C303.88,299.97 303.90,298.20 303.92,296.56 C304.05,285.39 304.11,280.38 306.63,278.19 C308.67,276.41 312.35,276.50 319.03,276.66 C320.23,276.69 321.54,276.72 322.94,276.75 C334.61,276.94 338.87,277.41 343.50,279.00 C360.24,284.76 373.92,300.82 378.44,320.02 C380.23,327.62 380.48,345.04 378.91,353.57 C373.44,383.30 350.03,407.55 318.50,416.15 ZM 568.50 416.20 C561.40,418.12 557.27,418.40 531.83,418.76 C503.86,419.15 503.11,419.11 501.08,417.08 C499.05,415.05 499.00,414.14 499.00,378.13 C499.00,342.35 499.06,341.19 501.07,338.63 L 503.15 336.00 L 521.10 336.00 C540.25,336.00 543.91,335.30 548.83,330.70 C553.68,326.18 554.00,324.42 554.00,302.68 C554.00,283.35 554.11,282.13 556.14,279.55 L 558.27 276.84 L 575.41 277.17 L 592.55 277.50 L 599.53 280.92 C613.89,287.97 625.60,303.83 629.55,321.60 C631.87,332.03 631.14,350.57 628.01,360.50 C623.64,374.35 618.52,382.63 607.57,393.54 C598.71,402.38 596.24,404.21 587.00,408.81 C581.22,411.69 572.90,415.02 568.50,416.20 ZM 312.00 728.46 C307.81,729.55 299.64,730.35 289.00,730.69 C273.07,731.21 272.40,731.16 269.72,729.02 L 266.94 726.81 L 267.22 715.17 L 267.50 703.52 L 272.38 700.33 C279.92,695.40 283.82,691.09 286.00,685.26 C287.90,680.20 288.00,677.46 288.00,632.01 C288.00,599.02 288.35,583.33 289.11,581.66 C290.84,577.87 294.15,577.00 306.80,577.02 C329.24,577.05 342.07,581.89 355.60,595.41 C365.75,605.55 371.05,615.59 374.14,630.50 C380.55,661.46 367.00,696.34 341.49,714.54 C333.81,720.02 320.76,726.18 312.00,728.46 ZM 875.55 416.55 L 873.09 419.00 L 814.05 419.00 C756.33,419.00 754.95,418.95 753.00,417.00 C751.07,415.07 751.00,413.67 751.00,377.67 L 751.00 340.35 L 755.63 336.00 L 873.85 336.00 L 875.93 338.63 C877.94,341.19 878.00,342.36 878.00,377.68 L 878.00 414.09 ZM 875.94 205.35 L 873.88 207.97 L 817.58 208.23 C786.61,208.38 759.56,208.22 757.47,207.88 C755.96,207.63 754.81,207.49 753.92,206.92 C751.00,205.05 751.00,198.61 751.00,169.05 L 751.00 166.81 C751.00,131.33 751.07,129.93 753.00,128.00 C754.96,126.04 756.33,126.00 814.43,126.00 L 873.85 126.00 L 875.93 128.63 C877.94,131.19 878.00,132.37 878.00,167.00 C878.00,201.56 877.93,202.82 875.94,205.35 ZM 323.57 567.93 C320.30,568.52 312.07,569.00 305.27,569.00 C293.48,569.00 292.80,568.89 290.45,566.55 L 288.00 564.09 L 288.00 525.22 C288.00,481.92 287.84,480.68 281.36,473.11 C279.42,470.84 275.83,467.82 273.39,466.38 C270.95,464.95 268.51,462.96 267.98,461.96 C267.44,460.95 267.00,455.38 267.00,449.57 C267.00,449.13 267.00,448.71 267.00,448.30 C266.99,442.34 266.99,438.98 268.66,437.14 C270.81,434.76 275.73,434.90 287.00,435.21 C287.60,435.23 288.22,435.24 288.86,435.26 C309.01,435.81 316.18,437.38 328.97,444.06 C344.18,451.99 355.97,463.91 363.01,478.50 C368.53,489.95 370.31,497.61 370.33,510.00 C370.34,518.79 369.92,521.69 367.74,527.83 C364.17,537.89 359.66,545.03 352.05,552.67 C344.65,560.09 333.29,566.18 323.57,567.93 ZM 718.22 521.10 C743.12,533.66 763.61,543.94 763.75,543.96 C764.42,544.06 856.00,497.93 856.00,497.50 C856.00,497.23 835.29,486.65 809.97,473.99 L 763.94 450.97 L 717.90 474.08 C692.58,486.79 672.10,497.44 672.40,497.74 C672.70,498.03 693.32,508.55 718.22,521.10 ZM 256.37 728.93 C253.99,730.79 252.47,730.99 241.12,730.87 C225.59,730.72 217.78,729.75 209.16,726.91 C196.04,722.60 187.32,717.27 176.64,707.06 C159.18,690.37 151.33,671.88 150.25,644.92 L 149.75 632.34 L 152.51 630.17 C155.23,628.03 155.76,628.00 194.00,628.00 C231.67,628.00 232.80,628.06 235.37,630.07 L 238.00 632.15 L 238.00 654.91 C238.00,679.83 238.65,684.00 243.68,691.27 C245.23,693.51 248.98,696.91 252.00,698.83 C255.02,700.76 257.83,702.82 258.23,703.41 C258.64,704.01 258.98,709.53 258.98,715.68 C259.00,726.57 258.93,726.91 256.37,728.93 ZM 235.66 528.52 C233.89,529.76 227.31,530.00 194.39,530.00 C191.21,530.00 188.27,530.00 185.53,530.01 C161.10,530.04 153.62,530.06 151.47,526.68 C150.53,525.19 150.62,523.04 150.76,519.93 C150.79,519.15 150.83,518.30 150.85,517.39 C151.27,500.91 155.96,485.84 164.89,472.25 C177.45,453.14 198.07,439.61 220.00,436.07 C223.57,435.49 233.11,435.01 241.18,435.01 C253.20,435.00 256.14,435.28 257.43,436.57 C258.67,437.81 259.00,440.48 259.00,449.14 C259.00,455.18 258.56,460.95 258.03,461.94 C257.50,462.94 254.88,465.15 252.21,466.87 C247.04,470.18 242.14,476.26 240.01,482.00 C239.17,484.27 238.55,492.81 238.24,506.27 C237.80,525.99 237.67,527.12 235.66,528.52 ZM 835.71 309.55 L 833.17 312.50 L 796.84 312.63 C776.85,312.70 758.95,312.40 757.05,311.96 C755.72,311.66 754.68,311.45 753.87,310.90 C751.00,308.96 751.00,302.77 751.00,273.03 L 751.00 271.31 C751.00,236.33 751.07,234.93 753.00,233.00 C754.93,231.07 756.33,231.00 793.89,231.00 C830.29,231.00 832.93,231.12 835.07,232.86 L 837.36 234.71 L 837.81 270.65 L 838.26 306.59 ZM 293.59 309.69 L 291.18 312.50 L 273.34 312.72 C263.53,312.84 254.58,312.55 253.47,312.08 C248.54,310.01 248.52,309.88 248.18,273.70 C248.00,255.01 248.12,238.64 248.45,237.33 C248.78,236.02 249.94,234.06 251.03,232.97 C252.85,231.15 254.42,231.00 272.05,231.00 C290.93,231.00 291.11,231.02 293.55,233.45 L 296.00 235.91 L 296.00 306.89 ZM 544.22 310.22 C542.07,312.38 541.13,312.51 526.72,312.65 C508.43,312.83 502.55,312.11 500.54,309.46 C499.30,307.82 499.06,301.71 499.03,271.70 L 499.00 235.91 L 501.45 233.45 C503.88,231.03 504.13,231.00 521.91,231.00 C541.37,231.00 544.17,231.57 545.97,235.93 C546.73,237.75 546.98,249.60 546.79,273.27 C546.50,307.83 546.49,307.95 544.22,310.22 ZM 278.98 604.30 L 276.85 607.00 L 250.58 607.00 C226.40,607.00 224.18,606.85 222.65,605.17 C221.21,603.57 221.00,600.17 221.00,577.83 C221.00,554.38 221.15,552.18 222.83,550.65 C224.43,549.20 227.87,549.00 250.64,549.00 C271.48,549.00 277.00,549.28 278.56,550.42 C280.38,551.75 280.52,553.43 280.80,576.72 C281.09,600.80 281.03,601.70 278.98,604.30 ZM 767.39 834.42 C766.79,835.99 761.98,836.64 760.67,835.33 C760.30,834.97 760.00,821.48 760.00,805.37 C760.00,777.43 760.09,776.02 761.93,775.04 C763.00,774.47 768.96,774.00 775.18,774.01 C784.95,774.02 787.19,774.34 791.54,776.37 C797.31,779.05 799.57,781.97 801.12,788.74 C803.03,797.03 799.24,805.27 791.55,809.56 C789.77,810.56 790.03,811.32 795.80,821.80 C799.27,828.10 801.70,833.63 801.37,834.48 C801.04,835.34 799.56,836.00 797.96,836.00 C794.62,836.00 793.49,834.54 786.09,820.75 L 780.86 811.00 L 768.00 811.00 L 768.00 821.92 C768.00,827.92 767.73,833.55 767.39,834.42 ZM 152.80 834.80 C151.09,836.51 147.32,836.28 146.61,834.42 C146.27,833.55 146.00,820.04 146.00,804.40 L 146.00 775.96 L 148.49 774.82 C153.32,772.62 154.71,774.42 162.15,792.53 C172.32,817.25 174.38,822.00 174.97,822.00 C175.26,821.99 177.72,816.48 180.43,809.75 C191.01,783.47 195.11,775.01 197.53,774.40 C198.78,774.09 200.76,774.33 201.91,774.95 C203.96,776.05 204.00,776.67 204.00,804.45 C204.00,820.06 203.73,833.55 203.39,834.42 C202.66,836.34 198.66,836.50 197.14,834.67 C196.45,833.83 195.94,826.08 195.77,813.51 L 195.50 793.67 L 188.16 811.09 C179.51,831.61 178.20,834.90 176.19,835.41 C175.81,835.51 175.40,835.51 174.91,835.50 C174.79,835.50 174.68,835.50 174.55,835.50 C171.68,835.50 171.44,835.10 164.72,818.50 C160.93,809.15 156.98,799.47 155.95,797.00 L 154.07 792.50 L 154.03 813.05 C154.01,827.66 153.65,833.95 152.80,834.80 ZM 323.86 834.67 C322.70,836.06 318.81,836.48 317.67,835.33 C317.30,834.97 317.00,821.48 317.00,805.37 C317.00,776.66 317.04,776.05 319.09,774.95 C322.37,773.19 325.28,774.57 328.09,779.22 C349.20,814.06 352.39,818.98 353.15,817.80 C353.60,817.08 353.98,807.48 353.98,796.45 C354.00,776.62 354.41,773.97 357.45,774.02 C361.31,774.07 361.44,775.01 361.63,804.19 C361.74,820.37 361.41,833.23 360.87,834.24 C360.30,835.32 358.77,836.00 356.94,836.00 C353.65,836.00 353.39,835.65 334.44,805.09 L 325.50 790.68 L 325.23 812.01 C325.06,825.69 324.56,833.82 323.86,834.67 ZM 245.38 828.22 C242.96,834.35 242.10,835.55 239.96,835.80 C237.02,836.14 236.00,835.38 236.00,832.86 C236.00,830.70 255.77,776.91 257.05,775.58 C258.03,774.56 263.66,774.33 264.60,775.26 C265.96,776.63 285.03,831.66 284.78,833.50 C284.46,835.79 280.41,836.81 278.63,835.04 C278.01,834.42 276.56,831.12 275.42,827.71 L 273.33 821.50 L 260.80 821.22 L 248.27 820.94 ZM 543.36 833.75 C541.75,836.32 537.52,836.79 536.63,834.49 C536.09,833.08 538.91,824.50 548.77,797.50 C556.82,775.46 556.92,775.24 559.46,774.60 C563.30,773.64 564.80,774.85 566.98,780.67 C578.07,810.32 585.89,833.13 585.39,834.43 C585.04,835.33 583.61,836.00 582.01,836.00 C579.50,836.00 578.97,835.32 576.37,828.75 L 573.49 821.50 L 560.84 821.22 L 548.18 820.94 L 546.48 826.22 C545.54,829.12 544.14,832.51 543.36,833.75 ZM 840.37 828.25 C837.87,834.57 837.15,835.54 834.74,835.82 C829.23,836.45 829.24,836.42 844.81,794.01 C850.87,777.49 851.88,775.41 854.32,774.56 C856.53,773.78 857.39,773.97 858.88,775.55 C861.06,777.86 880.27,831.36 879.80,833.81 C879.38,835.96 874.04,836.11 872.94,834.00 C872.51,833.17 871.17,829.91 869.96,826.75 L 867.77 821.00 L 843.24 821.00 ZM 432.06 833.58 C428.76,835.76 426.50,836.38 420.72,836.69 C412.53,837.13 407.46,835.35 402.81,830.38 C398.22,825.46 397.85,823.06 397.95,799.02 C398.05,774.17 398.43,772.51 403.46,774.80 L 406.00 775.96 L 406.01 798.23 C406.03,821.95 406.33,823.70 411.02,827.18 C415.13,830.22 420.22,830.55 425.28,828.11 C432.11,824.80 432.43,823.54 433.00,798.11 C433.44,778.20 433.69,775.59 435.25,774.61 C436.52,773.81 437.48,773.81 438.75,774.61 C440.32,775.60 440.53,778.04 440.77,797.98 C441.03,819.71 440.98,820.36 438.61,825.54 C436.92,829.24 434.92,831.68 432.06,833.58 ZM 711.98 834.92 C703.30,838.86 691.96,836.92 686.37,830.53 C681.50,824.96 680.89,820.98 681.21,797.11 C681.47,778.01 681.69,775.60 683.25,774.61 C684.52,773.81 685.48,773.81 686.75,774.61 C688.31,775.59 688.56,778.20 689.00,798.11 C689.42,816.96 689.78,821.01 691.26,823.72 C694.43,829.52 701.26,831.31 708.33,828.18 C715.62,824.95 716.00,823.52 716.02,798.80 C716.02,787.08 716.36,777.01 716.77,776.40 C717.89,774.71 720.31,774.17 722.25,775.17 C723.84,775.99 724.00,778.18 724.00,799.08 C724.00,819.68 723.80,822.47 722.11,825.79 C719.72,830.47 717.61,832.37 711.98,834.92 ZM 484.39 834.42 C483.66,836.32 478.16,836.58 477.45,834.74 C477.19,834.04 477.09,820.43 477.23,804.49 L 477.50 775.50 L 513.50 775.50 L 513.50 781.50 L 485.00 782.05 L 485.00 801.00 L 492.36 801.00 C503.76,801.00 508.85,801.94 509.56,804.18 C510.82,808.15 508.48,809.00 496.38,809.00 L 485.00 809.00 L 485.00 820.92 C485.00,827.47 484.73,833.55 484.39,834.42 ZM 632.50 782.50 L 631.50 835.50 L 628.99 835.79 C624.17,836.36 624.00,835.40 624.00,808.36 L 624.00 783.12 L 619.51 782.45 C617.04,782.08 613.90,782.06 612.53,782.40 C609.01,783.29 605.50,779.81 607.02,776.96 C608.05,775.05 608.98,774.97 628.69,775.23 C646.95,775.47 649.41,775.70 650.37,777.23 C652.33,780.34 649.34,781.84 640.50,782.19 ZM 768.00 782.00 L 768.00 804.00 L 776.75 804.00 C787.51,803.99 791.27,802.18 793.07,796.15 C794.09,792.75 794.00,791.66 792.38,788.36 C789.83,783.15 787.07,782.03 776.75,782.01 ZM 381.25 898.19 C379.56,899.89 377.56,900.50 372.67,900.81 L 366.30 901.21 L 365.65 896.47 C365.29,893.86 365.00,887.28 365.00,881.86 L 365.00 872.00 L 372.00 872.00 C382.58,872.00 384.54,874.73 383.84,888.49 C383.53,894.58 383.05,896.40 381.25,898.19 ZM 849.60 899.10 C846.56,900.96 837.13,901.79 835.67,900.33 C835.30,899.97 835.00,893.44 835.00,885.83 L 835.00 872.00 L 841.91 872.00 C848.40,872.00 848.98,872.19 851.41,875.08 C853.53,877.60 854.00,879.17 853.99,883.83 C853.97,893.77 853.04,897.00 849.60,899.10 ZM 815.92 898.41 C813.37,900.56 811.84,901.00 806.92,901.00 L 801.00 901.00 L 801.00 872.00 L 807.55 872.00 C813.16,872.00 814.44,872.35 816.55,874.45 C818.81,876.71 819.00,877.66 819.00,886.37 C819.00,895.70 818.96,895.86 815.92,898.41 ZM 512.55 898.55 C508.91,902.18 502.81,901.97 498.92,898.08 C496.18,895.33 496.00,894.67 496.00,887.12 C496.00,877.52 497.13,874.64 501.78,872.43 C504.65,871.07 505.96,870.97 508.98,871.88 C513.90,873.35 515.00,876.12 515.00,887.09 C515.00,895.31 514.79,896.30 512.55,898.55 ZM 704.69 898.59 C701.10,901.68 695.32,901.83 691.63,898.93 C689.11,896.94 689.00,896.44 689.00,887.15 C689.00,876.40 689.89,874.11 694.90,872.04 C697.22,871.08 698.68,871.07 701.46,871.99 C706.79,873.74 708.27,877.40 707.85,887.72 C707.53,895.54 707.29,896.35 704.69,898.59 ZM 604.69 898.59 C601.10,901.68 595.32,901.83 591.63,898.93 C589.10,896.94 589.00,896.46 589.00,886.88 C589.00,877.63 589.18,876.73 591.45,874.45 C594.97,870.94 601.71,871.00 605.08,874.58 C607.29,876.94 607.50,877.98 607.50,886.67 C607.50,895.84 607.40,896.26 604.69,898.59 ZM 296.94 898.55 C295.53,899.83 292.88,900.54 288.44,900.82 L 282.00 901.23 L 281.99 894.87 C281.99,891.36 281.70,884.79 281.35,880.25 L 280.70 872.00 L 287.78 872.00 C294.23,872.00 295.04,872.23 296.93,874.63 C299.34,877.70 299.58,880.83 297.60,883.53 C296.40,885.17 296.40,885.73 297.60,887.45 C299.72,890.47 299.37,896.35 296.94,898.55 ZM 728.29 898.99 C726.39,900.48 724.23,901.00 719.87,901.00 L 714.00 901.00 L 714.00 872.00 L 720.50 872.00 C725.67,872.00 727.41,872.41 729.00,874.00 C731.37,876.37 731.68,882.19 729.54,883.97 C728.27,885.02 728.35,885.55 730.14,887.98 C732.74,891.49 731.96,896.10 728.29,898.99 ZM 308.00 894.44 C308.00,899.55 307.11,901.77 305.64,900.31 C305.29,899.95 305.00,893.44 305.00,885.83 L 305.00 872.00 L 311.93 872.00 C318.22,872.00 319.04,872.24 320.93,874.63 C323.55,877.97 323.58,882.99 321.00,886.27 L 319.00 888.81 L 321.45 894.09 C323.88,899.33 323.94,902.03 321.60,900.08 C320.92,899.52 319.31,896.80 318.01,894.03 C315.79,889.28 315.45,889.00 311.83,889.00 L 308.00 889.00 ZM 151.20 894.75 C150.90,899.92 149.67,901.68 148.77,898.23 C148.32,896.51 148.32,894.49 148.78,879.25 L 149.00 872.00 L 155.50 872.00 C163.65,872.00 166.00,873.86 166.00,880.31 C166.00,886.64 164.28,888.36 157.34,888.98 L 151.50 889.50 ZM 693.45 896.55 C696.17,899.26 698.04,899.57 701.32,897.85 C704.66,896.09 704.97,895.12 704.98,886.25 C705.00,876.89 703.37,874.00 698.07,874.00 C693.15,874.00 691.00,877.86 691.00,886.68 C691.00,893.22 691.29,894.38 693.45,896.55 ZM 503.00 898.33 C505.50,899.25 509.39,898.04 511.35,895.73 C513.93,892.66 513.42,879.23 510.59,876.10 C508.18,873.43 503.61,873.39 501.00,876.00 C499.32,877.68 499.00,879.33 499.00,886.31 C499.00,894.61 499.85,897.16 503.00,898.33 ZM 368.00 874.00 L 368.00 898.00 L 372.93 898.00 C380.13,898.00 381.00,896.71 381.00,885.99 C381.00,877.95 380.79,876.97 378.78,875.56 C377.56,874.70 374.63,874.00 372.28,874.00 ZM 595.32 897.98 C598.17,899.12 601.07,898.32 603.25,895.80 C604.58,894.26 605.00,891.98 605.00,886.20 C605.00,879.80 604.66,878.27 602.83,876.31 C600.01,873.32 596.54,873.37 593.45,876.45 C591.31,878.60 591.00,879.80 591.00,886.02 C591.00,893.85 592.02,896.67 595.32,897.98 ZM 838.00 873.75 L 838.00 898.00 L 842.94 898.00 C849.67,898.00 851.00,896.02 851.00,885.97 C851.00,876.41 849.99,874.90 843.17,874.24 ZM 750.21 889.02 C749.94,898.88 749.26,901.93 747.68,900.35 C747.31,899.97 747.00,893.44 747.00,885.83 C747.00,872.97 747.13,872.00 748.88,872.00 C750.82,872.00 752.29,874.87 756.97,887.75 C758.22,891.19 759.60,894.00 760.04,894.00 C760.48,894.00 761.84,890.96 763.07,887.25 C766.58,876.67 768.81,872.00 770.36,872.00 C772.61,872.00 772.82,873.75 772.25,887.83 C771.89,896.74 771.35,900.95 770.62,900.71 C769.89,900.46 769.64,896.56 769.86,888.92 C770.04,882.64 769.84,877.85 769.41,878.27 C768.98,878.69 767.13,883.40 765.29,888.74 C761.78,898.96 760.58,901.04 759.14,899.45 C758.67,898.93 756.53,894.01 754.39,888.53 L 750.50 878.56 ZM 804.00 874.00 L 804.00 898.00 L 808.07 898.00 C815.41,898.00 816.00,897.17 816.00,886.79 C816.00,875.76 814.94,874.00 808.35,874.00 ZM 251.00 813.68 C251.00,813.85 255.27,814.00 260.50,814.00 C265.73,814.00 270.00,813.59 270.00,813.08 C270.00,812.30 263.69,794.28 261.45,788.65 C260.81,787.05 260.51,787.26 259.33,790.07 C257.96,793.33 251.00,813.05 251.00,813.68 ZM 554.63 804.25 L 551.04 814.00 L 570.88 814.00 L 566.82 802.75 C564.59,796.56 562.54,790.71 562.27,789.75 C561.51,787.11 560.45,787.64 559.28,791.25 C558.70,793.04 556.60,798.89 554.63,804.25 ZM 846.56 811.75 C845.87,813.97 845.97,814.00 855.43,814.00 C860.69,814.00 865.00,813.66 865.01,813.25 C865.03,811.62 856.46,788.01 855.84,788.00 C855.48,788.00 854.50,789.91 853.65,792.25 C852.81,794.59 851.02,799.42 849.68,803.00 C848.35,806.58 846.94,810.51 846.56,811.75 ZM 218.00 896.49 C216.82,900.09 215.48,901.60 214.68,900.27 C214.10,899.32 221.83,873.96 223.21,872.27 C225.07,869.99 227.73,872.71 229.05,878.23 C229.75,881.13 230.87,884.85 231.56,886.50 C232.24,888.15 233.49,891.85 234.34,894.73 C236.23,901.15 234.63,903.01 232.30,897.09 L 230.70 893.00 L 224.93 893.00 C219.22,893.00 219.14,893.04 218.00,896.49 ZM 879.01 899.75 C878.99,902.39 876.91,900.82 875.38,897.00 L 873.78 893.00 L 868.04 893.00 C862.44,893.00 862.27,893.08 861.38,896.17 C860.49,899.26 858.00,901.34 858.00,898.99 C858.00,898.34 859.85,892.00 862.11,884.90 C867.58,867.71 868.24,867.73 874.38,885.25 C876.93,892.54 879.02,899.06 879.01,899.75 ZM 341.13 900.75 C341.06,900.89 340.55,901.00 340.00,901.00 C339.38,901.00 339.00,895.50 339.00,886.50 C339.00,874.38 339.24,872.00 340.48,872.00 C342.08,872.00 342.14,872.08 350.11,885.75 L 355.50 895.01 L 355.78 883.50 C356.01,874.18 356.34,872.00 357.53,872.00 C358.75,872.00 359.00,874.26 358.98,885.25 C358.97,898.26 358.29,901.92 356.14,900.59 C355.55,900.22 352.23,895.20 348.78,889.43 L 342.50 878.95 L 341.88 889.72 C341.53,895.65 341.20,900.61 341.13,900.75 ZM 203.42 908.39 C203.29,908.44 203.17,908.49 203.05,908.53 C202.37,908.80 201.99,908.95 201.64,908.91 C201.14,908.87 200.68,908.48 199.48,907.61 C197.90,906.45 197.76,905.81 198.68,903.80 C199.66,901.65 199.48,901.26 197.04,900.18 C193.15,898.45 192.00,895.10 192.00,885.41 C192.00,877.72 192.23,876.68 194.45,874.45 C197.50,871.41 204.64,871.03 207.84,873.75 C210.58,876.08 211.91,883.00 209.61,883.00 C208.56,883.00 208.00,882.13 208.00,880.50 C208.00,874.89 200.96,872.04 196.96,876.04 C195.16,877.84 194.96,879.13 195.21,887.28 C195.49,896.10 195.61,896.53 198.12,897.73 C202.08,899.62 206.92,897.66 207.68,893.85 C208.37,890.40 210.62,890.63 210.25,894.11 C209.93,897.04 205.64,901.00 202.79,901.00 L 200.69 901.00 L 202.85 902.87 C205.38,905.07 205.64,907.54 203.42,908.39 ZM 578.64 906.50 C577.87,908.51 572.12,908.49 571.35,906.46 C571.02,905.62 571.59,903.93 572.62,902.71 C573.64,901.50 574.09,900.82 573.61,901.21 C572.41,902.20 567.28,899.39 566.03,897.06 C565.46,896.00 565.00,891.08 565.00,886.12 C565.00,878.06 565.25,876.82 567.39,874.33 C572.23,868.71 583.00,872.06 583.00,879.17 C583.00,880.73 582.55,882.00 582.00,882.00 C581.45,882.00 581.00,881.20 581.00,880.22 C581.00,876.79 578.09,874.00 574.51,874.00 C568.80,874.00 567.89,875.86 568.22,886.85 C568.50,896.35 568.54,896.50 571.36,897.85 C575.11,899.64 578.77,898.06 580.31,893.98 C581.75,890.18 583.00,890.16 583.00,893.93 C583.00,897.02 579.18,900.97 576.12,901.03 C574.87,901.06 575.04,901.52 576.86,903.03 C578.24,904.18 578.98,905.62 578.64,906.50 ZM 254.61 898.66 C249.21,903.30 239.00,900.28 239.00,894.05 C239.00,891.27 241.78,891.44 242.18,894.24 C242.93,899.48 252.62,899.87 254.42,894.74 C255.69,891.15 254.04,889.44 247.46,887.53 C240.02,885.37 237.08,880.45 239.99,875.01 C241.24,872.67 247.33,870.61 250.58,871.43 C254.05,872.30 257.00,875.55 257.00,878.50 C257.00,881.96 255.64,881.63 253.93,877.75 C252.79,875.15 251.83,874.44 249.16,874.18 C245.23,873.80 242.00,876.22 242.00,879.53 C242.00,882.43 243.65,883.71 249.75,885.52 C252.51,886.34 255.34,887.70 256.05,888.56 C258.29,891.27 257.61,896.08 254.61,898.66 ZM 649.55 898.55 C644.62,903.47 633.00,900.58 633.00,894.43 C633.00,892.94 633.58,892.00 634.50,892.00 C635.33,892.00 636.00,892.89 636.00,893.98 C636.00,898.50 644.81,900.34 648.01,896.49 C650.60,893.36 648.73,890.61 641.73,887.27 C634.03,883.59 632.08,880.69 634.25,876.17 C636.18,872.15 640.39,870.50 645.12,871.92 C649.10,873.11 651.00,875.37 651.00,878.93 C651.00,881.94 649.72,881.43 648.00,877.73 C646.68,874.89 646.03,874.50 642.54,874.50 C639.28,874.50 638.31,874.98 637.07,877.18 C635.71,879.61 635.73,880.04 637.30,881.78 C638.25,882.83 640.88,884.25 643.14,884.92 C651.40,887.40 654.37,893.72 649.55,898.55 ZM 681.55 898.55 C679.65,900.44 678.04,901.00 674.50,901.00 C670.96,901.00 669.35,900.44 667.45,898.55 C664.72,895.81 664.17,892.00 666.50,892.00 C667.33,892.00 668.00,892.84 668.00,893.88 C668.00,896.53 670.38,898.18 674.38,898.29 C678.49,898.41 681.00,896.59 681.00,893.50 C681.00,890.70 679.54,889.45 673.96,887.49 C667.84,885.33 666.00,883.37 666.00,879.00 C666.00,870.05 679.13,868.28 682.67,876.75 C683.89,879.67 683.91,880.44 682.82,881.12 C681.88,881.71 681.41,881.26 681.19,879.58 C680.43,873.63 671.98,871.97 669.06,877.18 C667.71,879.61 667.73,880.05 669.30,881.78 C670.25,882.83 672.88,884.25 675.14,884.92 C683.40,887.40 686.37,893.72 681.55,898.55 ZM 489.08 898.08 C486.83,900.32 485.24,901.00 482.21,901.00 C477.37,901.00 473.00,897.88 473.00,894.43 C473.00,891.21 474.79,891.31 475.61,894.57 C476.37,897.62 480.17,899.34 484.18,898.46 C487.40,897.75 489.39,894.82 488.52,892.06 C487.90,890.11 482.39,887.00 479.55,887.00 C478.65,887.00 476.80,885.90 475.45,884.55 C469.51,878.60 474.90,869.95 483.55,871.57 C487.28,872.28 491.00,876.05 491.00,879.13 C491.00,882.10 488.17,881.33 487.82,878.27 C487.42,874.88 483.38,873.13 479.25,874.58 C477.18,875.30 476.43,876.29 476.20,878.60 C475.84,882.27 476.87,883.20 483.75,885.45 C492.20,888.20 494.20,892.95 489.08,898.08 ZM 427.19 898.02 C424.47,901.38 416.44,901.94 412.75,899.03 C409.75,896.66 408.92,892.00 411.50,892.00 C412.33,892.00 413.00,892.89 413.00,893.98 C413.00,899.25 422.97,900.35 425.26,895.33 C426.85,891.84 425.37,889.97 418.97,887.40 C413.38,885.15 410.00,882.00 410.00,879.02 C410.00,876.40 413.61,872.31 416.58,871.57 C419.96,870.72 425.73,872.63 427.01,875.01 C428.54,877.87 428.22,881.00 426.39,881.00 C425.43,881.00 425.00,880.44 425.32,879.61 C426.30,877.06 423.14,874.00 419.51,874.00 C415.59,874.00 413.00,876.17 413.00,879.45 C413.00,882.37 414.42,883.52 419.86,884.97 C427.88,887.11 431.21,893.05 427.19,898.02 ZM 556.37 898.93 C552.12,902.26 543.11,901.30 541.56,897.33 C540.50,894.63 539.62,877.67 540.38,874.62 C541.86,868.74 543.00,872.42 543.00,883.07 C543.00,889.15 543.45,894.97 543.99,895.98 C545.44,898.69 550.54,899.53 553.54,897.57 C555.93,896.00 556.00,895.60 556.00,883.98 C556.00,874.00 556.25,872.00 557.50,872.00 C558.75,872.00 559.00,874.05 559.00,884.43 C559.00,896.66 558.96,896.89 556.37,898.93 ZM 795.75 899.25 C795.48,900.07 792.72,900.60 787.79,900.79 C781.58,901.03 780.13,900.79 779.62,899.46 C779.28,898.57 779.00,892.02 779.00,884.92 L 779.00 872.00 L 787.00 872.00 C791.67,872.00 795.00,872.42 795.00,873.00 C795.00,873.56 792.17,874.00 788.50,874.00 L 782.00 874.00 L 782.00 885.00 L 787.50 885.00 C794.51,885.00 794.72,886.80 787.75,887.20 L 782.50 887.50 L 781.90 898.00 L 789.03 898.00 C794.29,898.00 796.06,898.33 795.75,899.25 ZM 629.00 899.50 C629.00,900.70 627.51,901.00 621.63,901.00 L 614.26 901.00 L 613.64 897.25 C613.30,895.19 613.02,888.66 613.01,882.75 L 613.00 872.00 L 621.00 872.00 C625.67,872.00 629.00,872.42 629.00,873.00 C629.00,873.56 626.17,874.00 622.50,874.00 L 616.00 874.00 L 616.00 885.00 L 621.00 885.00 C627.36,885.00 627.57,886.79 621.25,887.20 L 616.50 887.50 L 615.90 898.00 L 622.45 898.00 C627.61,898.00 629.00,898.32 629.00,899.50 ZM 405.75 899.25 C405.30,900.61 391.94,901.61 390.71,900.37 C390.32,899.98 390.00,893.44 390.00,885.83 L 390.00 872.00 L 398.00 872.00 C402.67,872.00 406.00,872.42 406.00,873.00 C406.00,873.56 403.17,874.00 399.50,874.00 L 393.00 874.00 L 393.00 885.00 L 398.00 885.00 C400.75,885.00 403.00,885.45 403.00,886.00 C403.00,886.55 400.75,887.00 398.00,887.00 L 393.00 887.00 L 393.00 898.00 L 399.58 898.00 C404.40,898.00 406.06,898.33 405.75,899.25 ZM 459.00 899.50 C459.00,900.70 457.50,901.00 451.50,901.00 L 444.00 901.00 L 444.00 872.00 L 451.50 872.00 C455.83,872.00 459.00,872.42 459.00,873.00 C459.00,873.55 456.35,874.00 453.05,874.00 L 447.09 874.00 L 446.45 877.40 C445.29,883.58 445.94,884.47 451.82,884.80 C458.70,885.20 458.37,887.47 451.41,887.58 L 446.50 887.66 L 446.20 892.83 L 445.90 898.00 L 452.45 898.00 C457.61,898.00 459.00,898.32 459.00,899.50 ZM 188.00 899.50 C188.00,900.71 186.44,901.00 180.00,901.00 L 172.00 901.00 L 172.00 872.00 L 180.00 872.00 C189.71,872.00 190.72,873.79 181.25,874.20 L 174.50 874.50 L 173.90 885.00 L 179.45 885.00 C186.50,885.00 186.75,886.79 179.75,887.20 L 174.50 887.50 L 173.90 898.00 L 180.95 898.00 C186.55,898.00 188.00,898.31 188.00,899.50 ZM 151.41 885.62 C151.75,886.51 153.53,887.00 156.41,887.00 C159.90,887.00 161.23,886.51 162.44,884.78 C164.54,881.78 164.40,879.78 161.89,876.58 C160.10,874.32 159.13,873.94 155.64,874.20 L 151.50 874.50 L 151.19 879.37 C151.02,882.05 151.12,884.87 151.41,885.62 ZM 308.00 874.00 L 308.00 886.00 L 312.80 886.00 C318.58,886.00 320.00,884.79 320.00,879.84 C320.00,875.38 318.13,874.00 312.07,874.00 ZM 284.00 886.90 L 284.00 898.00 L 288.98 898.00 C293.24,898.00 294.20,897.63 295.67,895.38 C297.20,893.04 297.23,892.50 295.91,890.13 C294.65,887.89 293.66,887.45 289.22,887.20 ZM 717.00 887.00 L 717.00 898.00 L 721.43 898.00 C726.42,898.00 729.00,896.13 729.00,892.50 C729.00,888.87 726.42,887.00 721.43,887.00 ZM 536.75 899.25 C536.49,900.05 533.82,900.60 529.29,900.79 C523.54,901.03 522.13,900.79 521.62,899.46 C521.28,898.57 521.00,892.02 521.00,884.92 C521.00,874.10 521.24,872.00 522.50,872.00 C523.76,872.00 524.00,874.11 524.00,885.00 L 524.00 898.00 L 530.58 898.00 C535.40,898.00 537.06,898.33 536.75,899.25 ZM 717.00 874.00 L 717.00 885.00 L 720.93 885.00 C725.61,885.00 728.00,882.96 728.00,878.96 C728.00,875.54 725.70,874.00 720.57,874.00 ZM 284.20 879.25 L 283.89 884.00 L 288.75 884.00 C294.07,884.00 296.00,882.77 296.00,879.37 C296.00,875.76 293.29,873.86 288.63,874.20 L 284.50 874.50 ZM 864.00 889.68 C864.00,890.58 865.44,891.00 868.50,891.00 C870.97,891.00 872.98,890.66 872.95,890.25 C872.81,887.88 868.23,875.82 867.77,876.59 C866.94,877.95 864.00,888.16 864.00,889.68 ZM 332.00 885.94 C332.00,898.64 331.43,902.10 329.64,900.31 C329.29,899.95 329.00,893.44 329.00,885.83 C329.00,874.20 329.24,872.00 330.50,872.00 C331.76,872.00 332.00,874.22 332.00,885.94 ZM 224.84 890.20 C227.40,890.36 229.61,890.46 229.75,890.41 C229.96,890.34 227.34,882.20 225.47,877.11 C224.70,875.03 224.12,876.07 222.05,883.31 L 220.17 889.90 ZM 828.00 886.00 C828.00,897.78 827.76,900.00 826.50,900.00 C825.24,900.00 825.00,897.78 825.00,886.00 C825.00,874.22 825.24,872.00 826.50,872.00 C827.76,872.00 828.00,874.22 828.00,886.00 ZM 603.13 867.27 C601.88,868.52 592.00,869.06 592.00,867.88 C592.00,867.53 592.69,866.67 593.53,865.98 C594.72,864.98 595.62,864.96 597.64,865.88 C599.62,866.78 600.56,866.78 601.64,865.89 C603.44,864.39 604.78,865.62 603.13,867.27 ZM 264.80 900.59 C264.97,902.34 264.50,904.17 263.71,904.83 C262.11,906.15 260.70,905.27 261.78,903.61 C262.17,903.00 262.50,901.50 262.50,900.27 C262.50,896.84 264.46,897.10 264.80,900.59 ZM 573.00 905.00 C573.00,905.55 573.65,906.00 574.44,906.00 C575.23,906.00 576.16,905.55 576.50,905.00 C576.84,904.45 576.19,904.00 575.06,904.00 C573.93,904.00 573.00,904.45 573.00,905.00 ZM 200.50 905.00 C200.16,905.55 200.58,906.00 201.44,906.00 C202.30,906.00 203.00,905.55 203.00,905.00 C203.00,904.45 202.58,904.00 202.06,904.00 C201.54,904.00 200.84,904.45 200.50,905.00 Z" fill="rgb(21,90,148)"/>
<path d="M 0.00 512.00 L 0.00 0.00 L 512.00 0.00 L 1024.00 0.00 L 1024.00 512.00 L 1024.00 1024.00 L 512.00 1024.00 L 0.00 1024.00 L 0.00 512.00 ZM 203.42 908.39 C205.64,907.54 205.38,905.07 202.85,902.87 L 200.69 901.00 L 202.79 901.00 C205.64,901.00 209.93,897.04 210.25,894.11 C210.62,890.63 208.37,890.40 207.68,893.85 C206.92,897.66 202.08,899.62 198.12,897.73 C195.61,896.53 195.49,896.10 195.21,887.28 C194.96,879.13 195.16,877.84 196.96,876.04 C200.96,872.04 208.00,874.89 208.00,880.50 C208.00,882.13 208.56,883.00 209.61,883.00 C211.91,883.00 210.58,876.08 207.84,873.75 C204.64,871.03 197.50,871.41 194.45,874.45 C192.23,876.68 192.00,877.72 192.00,885.41 C192.00,895.10 193.15,898.45 197.04,900.18 C199.48,901.26 199.66,901.65 198.68,903.80 C197.76,905.81 197.90,906.45 199.48,907.61 C201.69,909.23 201.40,909.17 203.42,908.39 ZM 578.64 906.50 C578.98,905.62 578.24,904.18 576.86,903.03 C575.04,901.52 574.87,901.06 576.12,901.03 C579.18,900.97 583.00,897.02 583.00,893.93 C583.00,890.16 581.75,890.18 580.31,893.98 C578.77,898.06 575.11,899.64 571.36,897.85 C568.54,896.50 568.50,896.35 568.22,886.85 C567.89,875.86 568.80,874.00 574.51,874.00 C578.09,874.00 581.00,876.79 581.00,880.22 C581.00,881.20 581.45,882.00 582.00,882.00 C582.55,882.00 583.00,880.73 583.00,879.17 C583.00,872.06 572.23,868.71 567.39,874.33 C565.25,876.82 565.00,878.06 565.00,886.12 C565.00,891.08 565.46,896.00 566.03,897.06 C567.28,899.39 572.41,902.20 573.61,901.21 C574.09,900.82 573.64,901.50 572.62,902.71 C571.59,903.93 571.02,905.62 571.35,906.46 C572.12,908.49 577.87,908.51 578.64,906.50 ZM 264.80 900.59 C264.46,897.10 262.50,896.84 262.50,900.27 C262.50,901.50 262.17,903.00 261.78,903.61 C260.70,905.27 262.11,906.15 263.71,904.83 C264.50,904.17 264.97,902.34 264.80,900.59 ZM 188.00 899.50 C188.00,898.31 186.55,898.00 180.95,898.00 L 173.90 898.00 L 174.20 892.75 L 174.50 887.50 L 179.75 887.20 C186.75,886.79 186.50,885.00 179.45,885.00 L 173.90 885.00 L 174.20 879.75 L 174.50 874.50 L 181.25 874.20 C190.72,873.79 189.71,872.00 180.00,872.00 L 172.00 872.00 L 172.00 886.50 L 172.00 901.00 L 180.00 901.00 C186.44,901.00 188.00,900.71 188.00,899.50 ZM 218.00 896.49 C219.14,893.04 219.22,893.00 224.93,893.00 L 230.70 893.00 L 232.30 897.09 C234.63,903.01 236.23,901.15 234.34,894.73 C233.49,891.85 232.24,888.15 231.56,886.50 C230.87,884.85 229.75,881.13 229.05,878.23 C227.73,872.71 225.07,869.99 223.21,872.27 C221.83,873.96 214.10,899.32 214.68,900.27 C215.48,901.60 216.82,900.09 218.00,896.49 ZM 254.61 898.66 C257.61,896.08 258.29,891.27 256.05,888.56 C255.34,887.70 252.51,886.34 249.75,885.52 C243.65,883.71 242.00,882.43 242.00,879.53 C242.00,876.22 245.23,873.80 249.16,874.18 C251.83,874.44 252.79,875.15 253.93,877.75 C255.64,881.63 257.00,881.96 257.00,878.50 C257.00,875.55 254.05,872.30 250.58,871.43 C247.33,870.61 241.24,872.67 239.99,875.01 C237.08,880.45 240.02,885.37 247.46,887.53 C254.04,889.44 255.69,891.15 254.42,894.74 C252.62,899.87 242.93,899.48 242.18,894.24 C241.78,891.44 239.00,891.27 239.00,894.05 C239.00,900.28 249.21,903.30 254.61,898.66 ZM 296.94 898.55 C299.37,896.35 299.72,890.47 297.60,887.45 C296.40,885.73 296.40,885.17 297.60,883.53 C299.58,880.83 299.34,877.70 296.93,874.63 C295.04,872.23 294.23,872.00 287.78,872.00 L 280.70 872.00 L 281.35 880.25 C281.70,884.79 281.99,891.36 281.99,894.87 L 282.00 901.23 L 288.44 900.82 C292.88,900.54 295.53,899.83 296.94,898.55 ZM 308.00 894.44 L 308.00 889.00 L 311.83 889.00 C315.45,889.00 315.79,889.28 318.01,894.03 C319.31,896.80 320.92,899.52 321.60,900.08 C323.94,902.03 323.88,899.33 321.45,894.09 L 319.00 888.81 L 321.00 886.27 C323.58,882.99 323.55,877.97 320.93,874.63 C319.04,872.24 318.22,872.00 311.93,872.00 L 305.00 872.00 L 305.00 885.83 C305.00,893.44 305.29,899.95 305.64,900.31 C307.11,901.77 308.00,899.55 308.00,894.44 ZM 332.00 885.94 C332.00,874.22 331.76,872.00 330.50,872.00 C329.24,872.00 329.00,874.20 329.00,885.83 C329.00,893.44 329.29,899.95 329.64,900.31 C331.43,902.10 332.00,898.64 332.00,885.94 ZM 341.13 900.75 C341.20,900.61 341.53,895.65 341.88,889.72 L 342.50 878.95 L 348.78 889.43 C352.23,895.20 355.55,900.22 356.14,900.59 C358.29,901.92 358.97,898.26 358.98,885.25 C359.00,874.26 358.75,872.00 357.53,872.00 C356.34,872.00 356.01,874.18 355.78,883.50 L 355.50 895.01 L 350.11 885.75 C342.14,872.08 342.08,872.00 340.48,872.00 C339.24,872.00 339.00,874.38 339.00,886.50 C339.00,895.50 339.38,901.00 340.00,901.00 C340.55,901.00 341.06,900.89 341.13,900.75 ZM 381.25 898.19 C383.05,896.40 383.53,894.58 383.84,888.49 C384.54,874.73 382.58,872.00 372.00,872.00 L 365.00 872.00 L 365.00 881.86 C365.00,887.28 365.29,893.86 365.65,896.47 L 366.30 901.21 L 372.67 900.81 C377.56,900.50 379.56,899.89 381.25,898.19 ZM 405.75 899.25 C406.06,898.33 404.40,898.00 399.58,898.00 L 393.00 898.00 L 393.00 892.50 L 393.00 887.00 L 398.00 887.00 C400.75,887.00 403.00,886.55 403.00,886.00 C403.00,885.45 400.75,885.00 398.00,885.00 L 393.00 885.00 L 393.00 879.50 L 393.00 874.00 L 399.50 874.00 C403.17,874.00 406.00,873.56 406.00,873.00 C406.00,872.42 402.67,872.00 398.00,872.00 L 390.00 872.00 L 390.00 885.83 C390.00,893.44 390.32,899.98 390.71,900.37 C391.94,901.61 405.30,900.61 405.75,899.25 ZM 427.19 898.02 C431.21,893.05 427.88,887.11 419.86,884.97 C414.42,883.52 413.00,882.37 413.00,879.45 C413.00,876.17 415.59,874.00 419.51,874.00 C423.14,874.00 426.30,877.06 425.32,879.61 C425.00,880.44 425.43,881.00 426.39,881.00 C428.22,881.00 428.54,877.87 427.01,875.01 C425.73,872.63 419.96,870.72 416.58,871.57 C413.61,872.31 410.00,876.40 410.00,879.02 C410.00,882.00 413.38,885.15 418.97,887.40 C425.37,889.97 426.85,891.84 425.26,895.33 C422.97,900.35 413.00,899.25 413.00,893.98 C413.00,892.89 412.33,892.00 411.50,892.00 C408.92,892.00 409.75,896.66 412.75,899.03 C416.44,901.94 424.47,901.38 427.19,898.02 ZM 459.00 899.50 C459.00,898.32 457.61,898.00 452.45,898.00 L 445.90 898.00 L 446.20 892.83 L 446.50 887.66 L 451.41 887.58 C458.37,887.47 458.70,885.20 451.82,884.80 C445.94,884.47 445.29,883.58 446.45,877.40 L 447.09 874.00 L 453.05 874.00 C456.35,874.00 459.00,873.55 459.00,873.00 C459.00,872.42 455.83,872.00 451.50,872.00 L 444.00 872.00 L 444.00 886.50 L 444.00 901.00 L 451.50 901.00 C457.50,901.00 459.00,900.70 459.00,899.50 ZM 489.08 898.08 C494.20,892.95 492.20,888.20 483.75,885.45 C476.87,883.20 475.84,882.27 476.20,878.60 C476.43,876.29 477.18,875.30 479.25,874.58 C483.38,873.13 487.42,874.88 487.82,878.27 C488.17,881.33 491.00,882.10 491.00,879.13 C491.00,876.05 487.28,872.28 483.55,871.57 C474.90,869.95 469.51,878.60 475.45,884.55 C476.80,885.90 478.65,887.00 479.55,887.00 C482.39,887.00 487.90,890.11 488.52,892.06 C489.39,894.82 487.40,897.75 484.18,898.46 C480.17,899.34 476.37,897.62 475.61,894.57 C474.79,891.31 473.00,891.21 473.00,894.43 C473.00,897.88 477.37,901.00 482.21,901.00 C485.24,901.00 486.83,900.32 489.08,898.08 ZM 512.55 898.55 C514.79,896.30 515.00,895.31 515.00,887.09 C515.00,876.12 513.90,873.35 508.98,871.88 C505.96,870.97 504.65,871.07 501.78,872.43 C497.13,874.64 496.00,877.52 496.00,887.12 C496.00,894.67 496.18,895.33 498.92,898.08 C502.81,901.97 508.91,902.18 512.55,898.55 ZM 536.75 899.25 C537.06,898.33 535.40,898.00 530.58,898.00 L 524.00 898.00 L 524.00 885.00 C524.00,874.11 523.76,872.00 522.50,872.00 C521.24,872.00 521.00,874.10 521.00,884.92 C521.00,892.02 521.28,898.57 521.62,899.46 C522.13,900.79 523.54,901.03 529.29,900.79 C533.82,900.60 536.49,900.05 536.75,899.25 ZM 556.37 898.93 C558.96,896.89 559.00,896.66 559.00,884.43 C559.00,874.05 558.75,872.00 557.50,872.00 C556.25,872.00 556.00,874.00 556.00,883.98 C556.00,895.60 555.93,896.00 553.54,897.57 C550.54,899.53 545.44,898.69 543.99,895.98 C543.45,894.97 543.00,889.15 543.00,883.07 C543.00,872.42 541.86,868.74 540.38,874.62 C539.62,877.67 540.50,894.63 541.56,897.33 C543.11,901.30 552.12,902.26 556.37,898.93 ZM 604.69 898.59 C607.40,896.26 607.50,895.84 607.50,886.67 C607.50,877.98 607.29,876.94 605.08,874.58 C601.71,871.00 594.97,870.94 591.45,874.45 C589.18,876.73 589.00,877.63 589.00,886.88 C589.00,896.46 589.10,896.94 591.63,898.93 C595.32,901.83 601.10,901.68 604.69,898.59 ZM 629.00 899.50 C629.00,898.32 627.61,898.00 622.45,898.00 L 615.90 898.00 L 616.20 892.75 L 616.50 887.50 L 621.25 887.20 C627.57,886.79 627.36,885.00 621.00,885.00 L 616.00 885.00 L 616.00 879.50 L 616.00 874.00 L 622.50 874.00 C626.17,874.00 629.00,873.56 629.00,873.00 C629.00,872.42 625.67,872.00 621.00,872.00 L 613.00 872.00 L 613.01 882.75 C613.02,888.66 613.30,895.19 613.64,897.25 L 614.26 901.00 L 621.63 901.00 C627.51,901.00 629.00,900.70 629.00,899.50 ZM 649.55 898.55 C654.37,893.72 651.40,887.40 643.14,884.92 C640.88,884.25 638.25,882.83 637.30,881.78 C635.73,880.04 635.71,879.61 637.07,877.18 C638.31,874.98 639.28,874.50 642.54,874.50 C646.03,874.50 646.68,874.89 648.00,877.73 C649.72,881.43 651.00,881.94 651.00,878.93 C651.00,875.37 649.10,873.11 645.12,871.92 C640.39,870.50 636.18,872.15 634.25,876.17 C632.08,880.69 634.03,883.59 641.73,887.27 C648.73,890.61 650.60,893.36 648.01,896.49 C644.81,900.34 636.00,898.50 636.00,893.98 C636.00,892.89 635.33,892.00 634.50,892.00 C633.58,892.00 633.00,892.94 633.00,894.43 C633.00,900.58 644.62,903.47 649.55,898.55 ZM 681.55 898.55 C686.37,893.72 683.40,887.40 675.14,884.92 C672.88,884.25 670.25,882.83 669.30,881.78 C667.73,880.05 667.71,879.61 669.06,877.18 C671.98,871.97 680.43,873.63 681.19,879.58 C681.41,881.26 681.88,881.71 682.82,881.12 C683.91,880.44 683.89,879.67 682.67,876.75 C679.13,868.28 666.00,870.05 666.00,879.00 C666.00,883.37 667.84,885.33 673.96,887.49 C679.54,889.45 681.00,890.70 681.00,893.50 C681.00,896.59 678.49,898.41 674.38,898.29 C670.38,898.18 668.00,896.53 668.00,893.88 C668.00,892.84 667.33,892.00 666.50,892.00 C664.17,892.00 664.72,895.81 667.45,898.55 C669.35,900.44 670.96,901.00 674.50,901.00 C678.04,901.00 679.65,900.44 681.55,898.55 ZM 704.69 898.59 C707.29,896.35 707.53,895.54 707.85,887.72 C708.27,877.40 706.79,873.74 701.46,871.99 C698.68,871.07 697.22,871.08 694.90,872.04 C689.89,874.11 689.00,876.40 689.00,887.15 C689.00,896.44 689.11,896.94 691.63,898.93 C695.32,901.83 701.10,901.68 704.69,898.59 ZM 728.29 898.99 C731.96,896.10 732.74,891.49 730.14,887.98 C728.35,885.55 728.27,885.02 729.54,883.97 C731.68,882.19 731.37,876.37 729.00,874.00 C727.41,872.41 725.67,872.00 720.50,872.00 L 714.00 872.00 L 714.00 886.50 L 714.00 901.00 L 719.87 901.00 C724.23,901.00 726.39,900.48 728.29,898.99 ZM 750.21 889.02 L 750.50 878.56 L 754.39 888.53 C756.53,894.01 758.67,898.93 759.14,899.45 C760.58,901.04 761.78,898.96 765.29,888.74 C767.13,883.40 768.98,878.69 769.41,878.27 C769.84,877.85 770.04,882.64 769.86,888.92 C769.64,896.56 769.89,900.46 770.62,900.71 C771.35,900.95 771.89,896.74 772.25,887.83 C772.82,873.75 772.61,872.00 770.36,872.00 C768.81,872.00 766.58,876.67 763.07,887.25 C761.84,890.96 760.48,894.00 760.04,894.00 C759.60,894.00 758.22,891.19 756.97,887.75 C752.29,874.87 750.82,872.00 748.88,872.00 C747.13,872.00 747.00,872.97 747.00,885.83 C747.00,893.44 747.31,899.97 747.68,900.35 C749.26,901.93 749.94,898.88 750.21,889.02 ZM 795.75 899.25 C796.06,898.33 794.29,898.00 789.03,898.00 L 781.90 898.00 L 782.20 892.75 L 782.50 887.50 L 787.75 887.20 C794.72,886.80 794.51,885.00 787.50,885.00 L 782.00 885.00 L 782.00 879.50 L 782.00 874.00 L 788.50 874.00 C792.17,874.00 795.00,873.56 795.00,873.00 C795.00,872.42 791.67,872.00 787.00,872.00 L 779.00 872.00 L 779.00 884.92 C779.00,892.02 779.28,898.57 779.62,899.46 C780.13,900.79 781.58,901.03 787.79,900.79 C792.72,900.60 795.48,900.07 795.75,899.25 ZM 815.92 898.41 C818.96,895.86 819.00,895.70 819.00,886.37 C819.00,877.66 818.81,876.71 816.55,874.45 C814.44,872.35 813.16,872.00 807.55,872.00 L 801.00 872.00 L 801.00 886.50 L 801.00 901.00 L 806.92 901.00 C811.84,901.00 813.37,900.56 815.92,898.41 ZM 849.60 899.10 C853.04,897.00 853.97,893.77 853.99,883.83 C854.00,879.17 853.53,877.60 851.41,875.08 C848.98,872.19 848.40,872.00 841.91,872.00 L 835.00 872.00 L 835.00 885.83 C835.00,893.44 835.30,899.97 835.67,900.33 C837.13,901.79 846.56,900.96 849.60,899.10 ZM 879.01 899.75 C879.02,899.06 876.93,892.54 874.38,885.25 C868.24,867.73 867.58,867.71 862.11,884.90 C859.85,892.00 858.00,898.34 858.00,898.99 C858.00,901.34 860.49,899.26 861.38,896.17 C862.27,893.08 862.44,893.00 868.04,893.00 L 873.78 893.00 L 875.38 897.00 C876.91,900.82 878.99,902.39 879.01,899.75 ZM 151.20 894.75 L 151.50 889.50 L 157.34 888.98 C164.28,888.36 166.00,886.64 166.00,880.31 C166.00,873.86 163.65,872.00 155.50,872.00 L 149.00 872.00 L 148.78 879.25 C148.32,894.49 148.32,896.51 148.77,898.23 C149.67,901.68 150.90,899.92 151.20,894.75 ZM 828.00 886.00 C828.00,874.22 827.76,872.00 826.50,872.00 C825.24,872.00 825.00,874.22 825.00,886.00 C825.00,897.78 825.24,900.00 826.50,900.00 C827.76,900.00 828.00,897.78 828.00,886.00 ZM 603.13 867.27 C604.78,865.62 603.44,864.39 601.64,865.89 C600.56,866.78 599.62,866.78 597.64,865.88 C595.62,864.96 594.72,864.98 593.53,865.98 C592.69,866.67 592.00,867.53 592.00,867.88 C592.00,869.06 601.88,868.52 603.13,867.27 ZM 432.06 833.58 C434.92,831.68 436.92,829.24 438.61,825.54 C440.98,820.36 441.03,819.71 440.77,797.98 C440.53,778.04 440.32,775.60 438.75,774.61 C437.48,773.81 436.52,773.81 435.25,774.61 C433.69,775.59 433.44,778.20 433.00,798.11 C432.43,823.54 432.11,824.80 425.28,828.11 C420.22,830.55 415.13,830.22 411.02,827.18 C406.33,823.70 406.03,821.95 406.01,798.23 L 406.00 775.96 L 403.46 774.80 C398.43,772.51 398.05,774.17 397.95,799.02 C397.85,823.06 398.22,825.46 402.81,830.38 C407.46,835.35 412.53,837.13 420.72,836.69 C426.50,836.38 428.76,835.76 432.06,833.58 ZM 711.98 834.92 C717.61,832.37 719.72,830.47 722.11,825.79 C723.80,822.47 724.00,819.68 724.00,799.08 C724.00,778.18 723.84,775.99 722.25,775.17 C720.31,774.17 717.89,774.71 716.77,776.40 C716.36,777.01 716.02,787.08 716.02,798.80 C716.00,823.52 715.62,824.95 708.33,828.18 C701.26,831.31 694.43,829.52 691.26,823.72 C689.78,821.01 689.42,816.96 689.00,798.11 C688.56,778.20 688.31,775.59 686.75,774.61 C685.48,773.81 684.52,773.81 683.25,774.61 C681.69,775.60 681.47,778.01 681.21,797.11 C680.89,820.98 681.50,824.96 686.37,830.53 C691.96,836.92 703.30,838.86 711.98,834.92 ZM 152.80 834.80 C153.65,833.95 154.01,827.66 154.03,813.05 L 154.07 792.50 L 155.95 797.00 C156.98,799.47 160.93,809.15 164.72,818.50 C171.44,835.10 171.68,835.50 174.55,835.50 C177.99,835.50 177.47,836.44 188.16,811.09 L 195.50 793.67 L 195.77 813.51 C195.94,826.08 196.45,833.83 197.14,834.67 C198.66,836.50 202.66,836.34 203.39,834.42 C203.73,833.55 204.00,820.06 204.00,804.45 C204.00,776.67 203.96,776.05 201.91,774.95 C200.76,774.33 198.78,774.09 197.53,774.40 C195.11,775.01 191.01,783.47 180.43,809.75 C177.72,816.48 175.26,821.99 174.97,822.00 C174.38,822.00 172.32,817.25 162.15,792.53 C154.71,774.42 153.32,772.62 148.49,774.82 L 146.00 775.96 L 146.00 804.40 C146.00,820.04 146.27,833.55 146.61,834.42 C147.32,836.28 151.09,836.51 152.80,834.80 ZM 245.38 828.22 L 248.27 820.94 L 260.80 821.22 L 273.33 821.50 L 275.42 827.71 C276.56,831.12 278.01,834.42 278.63,835.04 C280.41,836.81 284.46,835.79 284.78,833.50 C285.03,831.66 265.96,776.63 264.60,775.26 C263.66,774.33 258.03,774.56 257.05,775.58 C255.77,776.91 236.00,830.70 236.00,832.86 C236.00,835.38 237.02,836.14 239.96,835.80 C242.10,835.55 242.96,834.35 245.38,828.22 ZM 323.86 834.67 C324.56,833.82 325.06,825.69 325.23,812.01 L 325.50 790.68 L 334.44 805.09 C353.39,835.65 353.65,836.00 356.94,836.00 C358.77,836.00 360.30,835.32 360.87,834.24 C361.41,833.23 361.74,820.37 361.63,804.19 C361.44,775.01 361.31,774.07 357.45,774.02 C354.41,773.97 354.00,776.62 353.98,796.45 C353.98,807.48 353.60,817.08 353.15,817.80 C352.39,818.98 349.20,814.06 328.09,779.22 C325.28,774.57 322.37,773.19 319.09,774.95 C317.04,776.05 317.00,776.66 317.00,805.37 C317.00,821.48 317.30,834.97 317.67,835.33 C318.81,836.48 322.70,836.06 323.86,834.67 ZM 484.39 834.42 C484.73,833.55 485.00,827.47 485.00,820.92 L 485.00 809.00 L 496.38 809.00 C508.48,809.00 510.82,808.15 509.56,804.18 C508.85,801.94 503.76,801.00 492.36,801.00 L 485.00 801.00 L 485.00 791.53 L 485.00 782.05 L 499.25 781.78 L 513.50 781.50 L 513.50 778.50 L 513.50 775.50 L 495.50 775.50 L 477.50 775.50 L 477.23 804.49 C477.09,820.43 477.19,834.04 477.45,834.74 C478.16,836.58 483.66,836.32 484.39,834.42 ZM 543.36 833.75 C544.14,832.51 545.54,829.12 546.48,826.22 L 548.18 820.94 L 560.84 821.22 L 573.49 821.50 L 576.37 828.75 C578.97,835.32 579.50,836.00 582.01,836.00 C583.61,836.00 585.04,835.33 585.39,834.43 C585.89,833.13 578.07,810.32 566.98,780.67 C564.80,774.85 563.30,773.64 559.46,774.60 C556.92,775.24 556.82,775.46 548.77,797.50 C538.91,824.50 536.09,833.08 536.63,834.49 C537.52,836.79 541.75,836.32 543.36,833.75 ZM 632.00 809.00 L 632.50 782.50 L 640.50 782.19 C649.34,781.84 652.33,780.34 650.37,777.23 C649.41,775.70 646.95,775.47 628.69,775.23 C608.98,774.97 608.05,775.05 607.02,776.96 C605.50,779.81 609.01,783.29 612.53,782.40 C613.90,782.06 617.04,782.08 619.51,782.45 L 624.00 783.12 L 624.00 808.36 C624.00,835.40 624.17,836.36 628.99,835.79 L 631.50 835.50 L 632.00 809.00 ZM 767.39 834.42 C767.73,833.55 768.00,827.92 768.00,821.92 L 768.00 811.00 L 774.43 811.00 L 780.86 811.00 L 786.09 820.75 C793.49,834.54 794.62,836.00 797.96,836.00 C799.56,836.00 801.04,835.34 801.37,834.48 C801.70,833.63 799.27,828.10 795.80,821.80 C790.03,811.32 789.77,810.56 791.55,809.56 C799.24,805.27 803.03,797.03 801.12,788.74 C799.57,781.97 797.31,779.05 791.54,776.37 C787.19,774.34 784.95,774.02 775.18,774.01 C768.96,774.00 763.00,774.47 761.93,775.04 C760.09,776.02 760.00,777.43 760.00,805.37 C760.00,821.48 760.30,834.97 760.67,835.33 C761.98,836.64 766.79,835.99 767.39,834.42 ZM 840.37 828.25 L 843.24 821.00 L 855.50 821.00 L 867.77 821.00 L 869.96 826.75 C871.17,829.91 872.51,833.17 872.94,834.00 C874.04,836.11 879.38,835.96 879.80,833.81 C880.27,831.36 861.06,777.86 858.88,775.55 C857.39,773.97 856.53,773.78 854.32,774.56 C851.88,775.41 850.87,777.49 844.81,794.01 C829.24,836.42 829.23,836.45 834.74,835.82 C837.15,835.54 837.87,834.57 840.37,828.25 ZM 823.26 704.92 C851.94,690.61 875.99,678.42 876.71,677.83 C877.76,676.95 877.96,659.40 877.76,584.62 L 877.50 492.50 L 820.74 464.00 L 763.98 435.50 L 709.68 462.70 C679.82,477.67 654.18,490.86 652.69,492.03 L 650.00 494.15 L 650.00 584.49 C650.00,634.18 650.28,675.58 650.63,676.48 C651.22,678.02 717.63,711.88 749.84,727.07 C763.97,733.73 764.22,733.80 767.65,732.37 C769.56,731.57 794.59,719.22 823.26,704.92 ZM 256.37 728.93 C258.93,726.91 259.00,726.57 258.98,715.68 C258.98,709.53 258.64,704.01 258.23,703.41 C257.83,702.82 255.02,700.76 252.00,698.83 C248.98,696.91 245.23,693.51 243.68,691.27 C238.65,684.00 238.00,679.83 238.00,654.91 L 238.00 632.15 L 235.37 630.07 C232.80,628.06 231.67,628.00 194.00,628.00 C155.76,628.00 155.23,628.03 152.51,630.17 L 149.75 632.34 L 150.25 644.92 C151.33,671.88 159.18,690.37 176.64,707.06 C187.32,717.27 196.04,722.60 209.16,726.91 C217.78,729.75 225.59,730.72 241.12,730.87 C252.47,730.99 253.99,730.79 256.37,728.93 ZM 312.00 728.46 C320.76,726.18 333.81,720.02 341.49,714.54 C367.00,696.34 380.55,661.46 374.14,630.50 C371.05,615.59 365.75,605.55 355.60,595.41 C342.07,581.89 329.24,577.05 306.80,577.02 C294.15,577.00 290.84,577.87 289.11,581.66 C288.35,583.33 288.00,599.02 288.00,632.01 C288.00,677.46 287.90,680.20 286.00,685.26 C283.82,691.09 279.92,695.40 272.38,700.33 L 267.50 703.52 L 267.22 715.17 L 266.94 726.81 L 269.72 729.02 C272.40,731.16 273.07,731.21 289.00,730.69 C299.64,730.35 307.81,729.55 312.00,728.46 ZM 484.37 728.93 L 487.00 726.85 L 487.00 628.88 L 487.00 530.91 L 484.55 528.45 L 482.09 526.00 L 441.36 526.00 C400.92,526.00 400.61,526.02 398.31,528.17 L 396.00 530.35 L 396.00 628.36 L 396.00 726.37 L 398.17 728.69 L 400.35 731.00 L 441.04 731.00 C480.69,731.00 481.80,730.95 484.37,728.93 ZM 546.79 729.93 C574.61,726.88 600.33,711.24 615.99,687.85 C622.46,678.19 627.11,667.07 630.34,653.56 C632.44,644.76 632.50,642.68 632.47,581.50 L 632.45 518.50 L 629.74 508.57 C626.37,496.25 619.79,482.68 612.74,473.50 C602.63,460.36 586.15,448.11 569.87,441.66 C554.11,435.41 557.41,435.64 475.64,435.26 C409.02,434.95 400.51,435.09 398.39,436.48 L 396.00 438.05 L 396.00 476.37 C396.00,511.92 396.13,514.81 397.79,516.31 C399.39,517.76 406.28,517.96 464.04,518.21 C527.91,518.50 528.54,518.52 533.23,520.69 C536.63,522.25 538.81,524.21 540.98,527.63 L 544.00 532.39 L 543.98 583.45 L 543.97 634.50 L 541.71 638.48 C540.45,640.71 537.71,643.45 535.48,644.71 C531.82,646.78 530.23,646.97 515.88,646.98 C501.62,647.00 500.04,647.18 497.63,649.07 L 495.00 651.15 L 495.00 689.00 L 495.00 726.85 L 497.63 728.93 C500.08,730.85 501.57,731.00 518.67,731.00 C528.80,731.00 541.45,730.52 546.79,729.93 ZM 278.98 604.30 C281.03,601.70 281.09,600.80 280.80,576.72 C280.52,553.43 280.38,551.75 278.56,550.42 C277.00,549.28 271.48,549.00 250.64,549.00 C227.87,549.00 224.43,549.20 222.83,550.65 C221.15,552.18 221.00,554.38 221.00,577.83 C221.00,600.17 221.21,603.57 222.65,605.17 C224.18,606.85 226.40,607.00 250.58,607.00 L 276.85 607.00 L 278.98 604.30 ZM 323.57 567.93 C333.29,566.18 344.65,560.09 352.05,552.67 C359.66,545.03 364.17,537.89 367.74,527.83 C369.92,521.69 370.34,518.79 370.33,510.00 C370.31,497.61 368.53,489.95 363.01,478.50 C355.97,463.91 344.18,451.99 328.97,444.06 C316.18,437.38 309.01,435.81 288.86,435.26 C266.34,434.65 267.00,434.22 267.00,449.57 C267.00,455.38 267.44,460.95 267.98,461.96 C268.51,462.96 270.95,464.95 273.39,466.38 C275.83,467.82 279.42,470.84 281.36,473.11 C287.84,480.68 288.00,481.92 288.00,525.22 L 288.00 564.09 L 290.45 566.55 C292.80,568.89 293.48,569.00 305.27,569.00 C312.07,569.00 320.30,568.52 323.57,567.93 ZM 235.66 528.52 C237.67,527.12 237.80,525.99 238.24,506.27 C238.55,492.81 239.17,484.27 240.01,482.00 C242.14,476.26 247.04,470.18 252.21,466.87 C254.88,465.15 257.50,462.94 258.03,461.94 C258.56,460.95 259.00,455.18 259.00,449.14 C259.00,440.48 258.67,437.81 257.43,436.57 C256.14,435.28 253.20,435.00 241.18,435.01 C233.11,435.01 223.57,435.49 220.00,436.07 C198.07,439.61 177.45,453.14 164.89,472.25 C155.96,485.84 151.27,500.91 150.85,517.39 C150.50,530.97 147.14,530.00 194.39,530.00 C227.31,530.00 233.89,529.76 235.66,528.52 ZM 237.78 417.44 L 240.00 415.89 L 240.00 272.77 C240.00,141.01 239.87,129.51 238.35,127.83 C236.79,126.11 234.08,126.00 193.92,126.00 L 151.15 126.00 L 149.09 128.62 C147.03,131.23 147.03,131.42 147.05,272.69 L 147.07 414.16 L 149.49 416.58 L 151.91 419.00 L 193.73 419.00 C229.97,419.00 235.85,418.79 237.78,417.44 ZM 318.50 416.15 C350.03,407.55 373.44,383.30 378.91,353.57 C380.48,345.04 380.23,327.62 378.44,320.02 C373.92,300.82 360.24,284.76 343.50,279.00 C338.87,277.41 334.61,276.94 322.94,276.75 C302.75,276.41 304.29,274.38 303.85,301.89 L 303.50 323.65 L 300.68 327.90 C295.96,335.04 292.63,335.95 271.36,335.98 C255.01,336.00 252.99,336.19 250.86,337.91 L 248.50 339.82 L 248.19 376.90 L 247.89 413.98 L 250.49 416.58 L 253.09 419.18 L 281.80 418.76 C307.36,418.38 311.37,418.09 318.50,416.15 ZM 488.78 417.44 L 491.00 415.89 L 491.00 272.77 C491.00,141.01 490.87,129.51 489.35,127.83 C487.79,126.11 485.08,126.00 444.92,126.00 L 402.15 126.00 L 400.07 128.63 L 398.00 131.27 L 398.00 272.68 L 398.00 414.09 L 400.45 416.55 L 402.91 419.00 L 444.73 419.00 C480.97,419.00 486.85,418.79 488.78,417.44 ZM 568.50 416.20 C572.90,415.02 581.22,411.69 587.00,408.81 C596.24,404.21 598.71,402.38 607.57,393.54 C618.52,382.63 623.64,374.35 628.01,360.50 C631.14,350.57 631.87,332.03 629.55,321.60 C625.60,303.83 613.89,287.97 599.53,280.92 L 592.55 277.50 L 575.41 277.17 L 558.27 276.84 L 556.14 279.55 C554.11,282.13 554.00,283.35 554.00,302.68 C554.00,324.42 553.68,326.18 548.83,330.70 C543.91,335.30 540.25,336.00 521.10,336.00 L 503.15 336.00 L 501.07 338.63 C499.06,341.19 499.00,342.35 499.00,378.13 C499.00,414.14 499.05,415.05 501.08,417.08 C503.11,419.11 503.86,419.15 531.83,418.76 C557.27,418.40 561.40,418.12 568.50,416.20 ZM 741.00 417.00 C742.98,415.02 743.00,413.67 743.00,272.50 C743.00,131.33 742.98,129.98 741.00,128.00 C739.06,126.06 737.67,126.00 696.50,126.00 C655.33,126.00 653.94,126.06 652.00,128.00 C650.02,129.98 650.00,131.33 650.00,272.43 L 650.00 414.85 L 652.63 416.93 C655.21,418.95 656.30,419.00 697.13,419.00 C737.67,419.00 739.06,418.94 741.00,417.00 ZM 875.55 416.55 L 878.00 414.09 L 878.00 377.68 C878.00,342.36 877.94,341.19 875.93,338.63 L 873.85 336.00 L 814.74 336.00 L 755.63 336.00 L 753.31 338.17 L 751.00 340.35 L 751.00 377.67 C751.00,413.67 751.07,415.07 753.00,417.00 C754.95,418.95 756.33,419.00 814.05,419.00 L 873.09 419.00 L 875.55 416.55 ZM 293.59 309.69 L 296.00 306.89 L 296.00 271.40 L 296.00 235.91 L 293.55 233.45 C291.11,231.02 290.93,231.00 272.05,231.00 C254.42,231.00 252.85,231.15 251.03,232.97 C249.94,234.06 248.78,236.02 248.45,237.33 C248.12,238.64 248.00,255.01 248.18,273.70 C248.52,309.88 248.54,310.01 253.47,312.08 C254.58,312.55 263.53,312.84 273.34,312.72 L 291.18 312.50 L 293.59 309.69 ZM 544.22 310.22 C546.49,307.95 546.50,307.83 546.79,273.27 C546.98,249.60 546.73,237.75 545.97,235.93 C544.17,231.57 541.37,231.00 521.91,231.00 C504.13,231.00 503.88,231.03 501.45,233.45 L 499.00 235.91 L 499.03 271.70 C499.06,301.71 499.30,307.82 500.54,309.46 C502.55,312.11 508.43,312.83 526.72,312.65 C541.13,312.51 542.07,312.38 544.22,310.22 ZM 835.71 309.55 L 838.26 306.59 L 837.81 270.65 L 837.36 234.71 L 835.07 232.86 C832.93,231.12 830.29,231.00 793.89,231.00 C756.33,231.00 754.93,231.07 753.00,233.00 C751.07,234.93 751.00,236.33 751.00,271.31 C751.00,311.17 750.91,310.55 757.05,311.96 C758.95,312.40 776.85,312.70 796.84,312.63 L 833.17 312.50 L 835.71 309.55 ZM 348.45 264.62 C368.53,254.70 380.00,233.73 380.00,206.97 C380.00,173.64 360.66,145.00 329.71,132.47 C315.76,126.82 309.35,126.00 279.11,126.00 L 252.15 126.00 L 250.03 128.69 C247.94,131.34 247.91,132.00 248.20,167.67 C248.50,203.91 248.50,203.95 250.78,206.22 C252.98,208.42 253.68,208.50 271.78,208.57 C291.30,208.64 292.96,208.95 297.85,213.37 C302.89,217.95 303.25,219.86 303.38,243.28 L 303.50 265.18 L 305.96 267.17 C308.24,269.01 309.65,269.14 324.52,268.83 L 340.61 268.50 L 348.45 264.62 ZM 600.22 264.25 C613.66,257.59 622.23,247.04 627.63,230.50 C631.45,218.80 632.06,201.00 629.07,188.50 C622.18,159.62 599.82,137.24 569.45,128.81 C562.28,126.83 558.63,126.57 532.32,126.24 C503.90,125.88 503.08,125.92 501.07,127.93 C499.05,129.95 499.00,130.93 499.00,166.89 C499.00,201.74 499.11,203.91 500.91,206.14 C502.81,208.48 502.99,208.50 519.73,208.16 C538.29,207.79 543.13,208.56 547.99,212.65 C553.72,217.47 554.00,218.84 554.00,242.50 L 554.00 264.10 L 556.75 266.64 C559.50,269.19 559.51,269.19 575.58,268.85 L 591.65 268.50 L 600.22 264.25 ZM 875.94 205.35 C877.93,202.82 878.00,201.56 878.00,167.00 C878.00,132.37 877.94,131.19 875.93,128.63 L 873.85 126.00 L 814.43 126.00 C756.33,126.00 754.96,126.04 753.00,128.00 C751.07,129.93 751.00,131.33 751.00,166.81 C751.00,207.60 750.87,206.81 757.47,207.88 C759.56,208.22 786.61,208.38 817.58,208.23 L 873.88 207.97 L 875.94 205.35 ZM 200.50 905.00 C200.84,904.45 201.54,904.00 202.06,904.00 C202.58,904.00 203.00,904.45 203.00,905.00 C203.00,905.55 202.30,906.00 201.44,906.00 C200.58,906.00 200.16,905.55 200.50,905.00 ZM 573.00 905.00 C573.00,904.45 573.93,904.00 575.06,904.00 C576.19,904.00 576.84,904.45 576.50,905.00 C576.16,905.55 575.23,906.00 574.44,906.00 C573.65,906.00 573.00,905.55 573.00,905.00 ZM 224.84 890.20 L 220.17 889.90 L 222.05 883.31 C224.12,876.07 224.70,875.03 225.47,877.11 C227.34,882.20 229.96,890.34 229.75,890.41 C229.61,890.46 227.40,890.36 224.84,890.20 ZM 284.00 892.45 L 284.00 886.90 L 289.22 887.20 C293.66,887.45 294.65,887.89 295.91,890.13 C297.23,892.50 297.20,893.04 295.67,895.38 C294.20,897.63 293.24,898.00 288.98,898.00 L 284.00 898.00 L 284.00 892.45 ZM 284.20 879.25 L 284.50 874.50 L 288.63 874.20 C293.29,873.86 296.00,875.76 296.00,879.37 C296.00,882.77 294.07,884.00 288.75,884.00 L 283.89 884.00 L 284.20 879.25 ZM 308.00 880.00 L 308.00 874.00 L 312.07 874.00 C318.13,874.00 320.00,875.38 320.00,879.84 C320.00,884.79 318.58,886.00 312.80,886.00 L 308.00 886.00 L 308.00 880.00 ZM 368.00 886.00 L 368.00 874.00 L 372.28 874.00 C374.63,874.00 377.56,874.70 378.78,875.56 C380.79,876.97 381.00,877.95 381.00,885.99 C381.00,896.71 380.13,898.00 372.93,898.00 L 368.00 898.00 L 368.00 886.00 ZM 503.00 898.33 C499.85,897.16 499.00,894.61 499.00,886.31 C499.00,879.33 499.32,877.68 501.00,876.00 C503.61,873.39 508.18,873.43 510.59,876.10 C513.42,879.23 513.93,892.66 511.35,895.73 C509.39,898.04 505.50,899.25 503.00,898.33 ZM 595.32 897.98 C592.02,896.67 591.00,893.85 591.00,886.02 C591.00,879.80 591.31,878.60 593.45,876.45 C596.54,873.37 600.01,873.32 602.83,876.31 C604.66,878.27 605.00,879.80 605.00,886.20 C605.00,891.98 604.58,894.26 603.25,895.80 C601.07,898.32 598.17,899.12 595.32,897.98 ZM 693.45 896.55 C691.29,894.38 691.00,893.22 691.00,886.68 C691.00,877.86 693.15,874.00 698.07,874.00 C703.37,874.00 705.00,876.89 704.98,886.25 C704.97,895.12 704.66,896.09 701.32,897.85 C698.04,899.57 696.17,899.26 693.45,896.55 ZM 717.00 892.50 L 717.00 887.00 L 721.43 887.00 C726.42,887.00 729.00,888.87 729.00,892.50 C729.00,896.13 726.42,898.00 721.43,898.00 L 717.00 898.00 L 717.00 892.50 ZM 717.00 879.50 L 717.00 874.00 L 720.57 874.00 C725.70,874.00 728.00,875.54 728.00,878.96 C728.00,882.96 725.61,885.00 720.93,885.00 L 717.00 885.00 L 717.00 879.50 ZM 804.00 886.00 L 804.00 874.00 L 808.35 874.00 C814.94,874.00 816.00,875.76 816.00,886.79 C816.00,897.17 815.41,898.00 808.07,898.00 L 804.00 898.00 L 804.00 886.00 ZM 838.00 885.87 L 838.00 873.75 L 843.17 874.24 C849.99,874.90 851.00,876.41 851.00,885.97 C851.00,896.02 849.67,898.00 842.94,898.00 L 838.00 898.00 L 838.00 885.87 ZM 864.00 889.68 C864.00,888.16 866.94,877.95 867.77,876.59 C868.23,875.82 872.81,887.88 872.95,890.25 C872.98,890.66 870.97,891.00 868.50,891.00 C865.44,891.00 864.00,890.58 864.00,889.68 ZM 151.41 885.62 C151.12,884.87 151.02,882.05 151.19,879.37 L 151.50 874.50 L 155.64 874.20 C159.13,873.94 160.10,874.32 161.89,876.58 C164.40,879.78 164.54,881.78 162.44,884.78 C161.23,886.51 159.90,887.00 156.41,887.00 C153.53,887.00 151.75,886.51 151.41,885.62 ZM 251.00 813.68 C251.00,813.05 257.96,793.33 259.33,790.07 C260.51,787.26 260.81,787.05 261.45,788.65 C263.69,794.28 270.00,812.30 270.00,813.08 C270.00,813.59 265.73,814.00 260.50,814.00 C255.27,814.00 251.00,813.85 251.00,813.68 ZM 554.63 804.25 C556.60,798.89 558.70,793.04 559.28,791.25 C560.45,787.64 561.51,787.11 562.27,789.75 C562.54,790.71 564.59,796.56 566.82,802.75 L 570.88 814.00 L 560.96 814.00 L 551.04 814.00 L 554.63 804.25 ZM 768.00 793.00 L 768.00 782.00 L 776.75 782.01 C787.07,782.03 789.83,783.15 792.38,788.36 C794.00,791.66 794.09,792.75 793.07,796.15 C791.27,802.18 787.51,803.99 776.75,804.00 L 768.00 804.00 L 768.00 793.00 ZM 846.56 811.75 C846.94,810.51 848.35,806.58 849.68,803.00 C851.02,799.42 852.81,794.59 853.65,792.25 C854.50,789.91 855.48,788.00 855.84,788.00 C856.46,788.01 865.03,811.62 865.01,813.25 C865.00,813.66 860.69,814.00 855.43,814.00 C845.97,814.00 845.87,813.97 846.56,811.75 ZM 711.40 692.71 C687.14,680.49 666.55,669.88 665.65,669.13 C664.14,667.87 664.00,660.88 664.00,588.88 C664.00,545.49 664.23,510.00 664.50,510.00 C664.78,510.00 685.71,520.35 711.00,533.00 L 757.00 556.00 L 757.00 635.50 C757.00,679.23 756.66,714.98 756.25,714.96 C755.84,714.94 735.65,704.92 711.40,692.71 ZM 772.24 635.26 L 772.50 555.50 L 817.85 532.68 C842.79,520.13 863.37,510.04 863.58,510.25 C863.79,510.46 864.02,546.15 864.09,589.57 L 864.22 668.50 L 818.10 691.76 L 771.99 715.02 L 772.24 635.26 ZM 718.22 521.10 C693.32,508.55 672.70,498.03 672.40,497.74 C672.10,497.44 692.58,486.79 717.90,474.08 L 763.94 450.97 L 809.97 473.99 C835.29,486.65 856.00,497.23 856.00,497.50 C856.00,497.93 764.42,544.06 763.75,543.96 C763.61,543.94 743.12,533.66 718.22,521.10 Z" fill="rgb(250,223,183)"/>
</g>
</svg>
